<svg width="158" height="45" viewBox="0 0 158 45" fill="none" xmlns="http://www.w3.org/2000/svg">
<path d="M8.97637 9.28277C9.69062 9.07128 10.4186 8.9095 11.1552 8.79858C12.0319 8.66984 12.9171 8.60914 13.8031 8.61701C15.4784 8.58926 17.1399 8.9221 18.6752 9.59295C20.0589 10.202 21.2931 11.1057 22.2915 12.2409C23.2919 13.4227 24.049 14.7905 24.5195 16.2657C25.0347 17.8534 25.2902 19.514 25.2761 21.1832C25.321 23.2497 24.9638 25.3052 24.2245 27.2355C23.5867 28.8573 22.576 30.3062 21.274 31.4646C19.9688 32.5986 18.4406 33.4465 16.7877 33.9536C14.9495 34.5162 13.0358 34.7931 11.1136 34.7745C9.06333 34.7951 7.01655 34.5973 5.00831 34.1843C3.30529 33.8212 1.63133 33.3332 0 32.7242V0H8.97637V9.28277ZM8.97637 27.8521C9.74426 28.0681 10.5392 28.1725 11.3368 28.1623C12.7634 28.2089 14.1365 27.6167 15.0817 26.5471C16.0399 25.4677 16.5178 23.8172 16.5153 21.5955C16.5153 19.4393 16.045 17.8494 15.1044 16.8255C14.2 15.8143 12.8972 15.2514 11.541 15.2859C11.0927 15.2823 10.6452 15.3254 10.2058 15.4145C9.78965 15.5007 9.37911 15.6119 8.97637 15.7474V27.8521Z" fill="white"/>
<path d="M35.0847 23.3885C35.1527 24.9016 35.6407 26.073 36.5486 26.9027C37.4936 27.7582 38.7358 28.2103 40.0097 28.1623C41.0108 28.1886 42.0037 27.9773 42.9073 27.5457C43.7763 27.0797 44.5369 26.4352 45.1391 25.6544L50.6278 29.9629C50.0688 30.6609 49.4345 31.2952 48.7364 31.8542C47.124 33.1406 45.2216 34.0133 43.1948 34.3962C41.8843 34.644 40.5528 34.7631 39.2192 34.7518C37.5177 34.7651 35.8264 34.4875 34.2184 33.9309C31.0958 32.8762 28.5931 30.5049 27.3717 27.4436C26.6536 25.6399 26.305 23.7104 26.3466 21.7695C26.313 19.8694 26.6443 17.9804 27.3225 16.2052C27.9116 14.6608 28.813 13.2545 29.9704 12.0744C31.1215 10.9236 32.5126 10.0414 34.0444 9.49085C35.6625 8.89738 37.3746 8.60135 39.0981 8.61705C42.8253 8.61705 45.7909 9.82248 47.995 12.2333C50.1992 14.6442 51.3188 18.3624 51.3541 23.3885H35.0847ZM42.9338 18.6185C42.8996 17.4619 42.4742 16.3511 41.7271 15.4675C41.0932 14.7262 40.1643 14.3025 39.1889 14.31C38.1625 14.3133 37.1849 14.7486 36.4956 15.5091C35.697 16.3653 35.2163 17.4695 35.1338 18.6374L42.9338 18.6185Z" fill="white"/>
<path d="M51.1384 15.441V9.18444H54.679V2.87109H63.6554V9.18444H67.4608L69.6775 15.441H63.6554V25.4917C63.6288 26.1701 63.7236 26.8477 63.9353 27.4928C64.1245 27.9732 64.5444 28.2115 65.195 28.2115C65.8047 28.2105 66.4062 28.0708 66.9539 27.8029C67.4882 27.5473 67.9952 27.2381 68.467 26.88L70.7745 32.3157C69.6523 33.0994 68.4159 33.7055 67.109 34.1125C65.6176 34.5455 64.0696 34.7521 62.5168 34.7253C61.2516 34.759 59.991 34.5589 58.7984 34.1352C57.8615 33.7898 57.0246 33.218 56.3623 32.4708C55.727 31.7129 55.2786 30.8162 55.0535 29.8532C54.7894 28.7277 54.6624 27.5744 54.6753 26.4185V15.4486L51.1384 15.441Z" fill="white"/>
<path d="M77.731 34.2146L66.6401 2.85974H75.3177L81.7483 22.4693L85.5953 9.18443H91.4282L95.2752 22.4693L98.9672 9.18443H108.148L99.2736 34.2146H92.4004L88.4512 21.0811L84.555 34.2146H77.731Z" fill="white"/>
<path d="M122.227 34.2147L121.508 32.2628C120.699 32.9895 119.76 33.5556 118.739 33.931C117.445 34.4157 116.07 34.6506 114.688 34.6232C113.589 34.6335 112.496 34.4609 111.454 34.1125C110.497 33.7906 109.616 33.2756 108.866 32.5995C108.131 31.9353 107.544 31.1231 107.145 30.2164C106.72 29.2106 106.511 28.1267 106.532 27.0351C106.458 24.8664 107.419 22.7917 109.12 21.4442C109.965 20.7724 110.909 20.2364 111.919 19.8555C113.009 19.4352 114.144 19.142 115.301 18.9817C116.398 18.8115 117.411 18.6829 118.353 18.6034C119.295 18.524 120.158 18.4559 120.944 18.4219V17.8015C120.944 16.7726 120.619 16.0236 119.968 15.5319C119.299 15.0464 118.488 14.794 117.661 14.8132C116.7 14.8077 115.749 14.9995 114.866 15.3768C113.962 15.7823 113.115 16.3036 112.346 16.9277L108.325 12.483C109.687 11.2912 111.239 10.3372 112.918 9.66111C114.86 8.93506 116.923 8.58708 118.996 8.63599C122.275 8.63599 124.89 9.43161 126.842 11.0229C128.794 12.6142 129.768 15.0844 129.766 18.4332V34.2147H122.227ZM120.944 22.8665C120.43 22.9006 119.919 22.9422 119.405 22.9952C118.89 23.0481 118.361 23.1238 117.816 23.2259C116.757 23.3961 116 23.763 115.546 24.3267C115.11 24.8599 114.875 25.5291 114.881 26.218C114.862 26.8904 115.138 27.5372 115.637 27.9883C116.214 28.4793 116.958 28.7274 117.714 28.6806C118.317 28.6884 118.916 28.5845 119.48 28.3742C120.005 28.1715 120.498 27.8951 120.944 27.5533V22.8665Z" fill="white"/>
<path d="M132.062 36.9836C132.601 37.2805 133.169 37.5214 133.757 37.7023C134.335 37.8949 134.94 37.9982 135.55 38.0087C136.096 38.0278 136.638 37.897 137.116 37.6304C137.571 37.3148 137.92 36.8673 138.114 36.3481L139.552 33.1177L128.934 9.18445H138.678L143.743 23.8008L148.77 9.18445H158L145.487 38.8295C144.599 40.9126 143.394 42.3828 141.87 43.2402C140.225 44.125 138.378 44.5669 136.51 44.5225C135.302 44.5332 134.096 44.396 132.921 44.114C131.849 43.846 130.802 43.4853 129.792 43.0359L132.062 36.9836Z" fill="white"/>
</svg>
